<svg xmlns="http://www.w3.org/2000/svg" viewBox="0 0 512 512" width="100%" height="100%" id="promptIR-logomark">
  <g id="mark">
    <!-- Front chevron: solid, full-strength brand color -->
    <path d="M 116,142
             C 129,129 150,129 163,142
             L 271,250
             C 284,263 284,285 271,298
             L 163,406
             C 150,419 129,419 116,406
             C 103,393 103,372 116,359
             L 200,275
             L 116,191
             C 103,178 103,155 116,142 Z"
          fill="#E8720C" />

    <!-- Rear chevron: same shape, lighter tint, offset for depth and rhythm -->
    <path d="M 252,142
             C 265,129 286,129 299,142
             L 407,250
             C 420,263 420,285 407,298
             L 299,406
             C 286,419 265,419 252,406
             C 239,393 239,372 252,359
             L 336,275
             L 252,191
             C 239,178 239,155 252,142 Z"
          fill="#F5B87A" />
  </g>
</svg>
